<?xml version="1.0" encoding="utf-8"?>
<!-- Generator: Adobe Illustrator 18.1.1, SVG Export Plug-In . SVG Version: 6.00 Build 0)  -->
<svg version="1.1" id="Layer_1" xmlns="http://www.w3.org/2000/svg" xmlns:xlink="http://www.w3.org/1999/xlink" x="0px" y="0px"
	 viewBox="-383 385 32 32" enable-background="new -383 385 32 32" xml:space="preserve">
<g>
	<path id="Head" fill="#895A4D" d="M-355,385h-24c-2.2,0-4,1.8-4,4v8h32v-8C-351,386.8-352.8,385-355,385z"/>
	<path id="Red_x5F_Stripes" fill="#FF3939" d="M-381,385.6V397h2v-12C-379.7,385-380.4,385.2-381,385.6z"/>
	<rect id="Yellow_x5F_Stripes" x="-379" y="385" fill="#FED049" width="2" height="12"/>
	<rect id="Green_x5F_Stripes" x="-377" y="385" fill="#10DD76" width="2" height="12"/>
	<rect id="Blue_x5F_Stripes" x="-375" y="385" fill="#5FCCFF" width="2" height="12"/>
	<circle id="Lens_1_" fill="#162838" cx="-357" cy="391" r="3"/>
	<circle id="Lens_x5F_Outer" fill="#2C4356" cx="-357" cy="391" r="1.5"/>
	<circle id="Lens_x5F_Inside" fill="#47637A" cx="-357" cy="391" r="0.5"/>
	<path id="Body" fill="#E5E0DC" d="M-383,397v16c0,2.2,1.8,4,4,4h24c2.2,0,4-1.8,4-4v-16H-383z"/>
	<circle id="Lens" fill="#DCD7D3" cx="-367" cy="401" r="9"/>
	<circle id="Inside_x5F_Lens" fill="#162838" cx="-367" cy="401" r="7"/>
	<circle id="_x32_nd_Inner_Circle" fill="#2C4356" cx="-367" cy="401" r="4"/>
	<circle id="Middle_Circle" fill="#162838" cx="-367" cy="401" r="2"/>
	<circle id="Reflection" fill="#47637A" cx="-364.5" cy="398.5" r="1.5"/>
</g>
</svg>
